<?xml version="1.0" encoding="utf-8"?>
<!-- Generator: Adobe Illustrator 16.0.0, SVG Export Plug-In . SVG Version: 6.00 Build 0)  -->
<!DOCTYPE svg PUBLIC "-//W3C//DTD SVG 1.1//EN" "http://www.w3.org/Graphics/SVG/1.1/DTD/svg11.dtd">
<svg version="1.1" id="레이어_1" xmlns="http://www.w3.org/2000/svg" xmlns:xlink="http://www.w3.org/1999/xlink" x="0px"
	 y="0px" width="24px" height="24px" viewBox="0 0 24 24" enable-background="new 0 0 24 24" xml:space="preserve">
<path d="M18.546,11.096h1.612c0-4.136-3.122-7.254-7.264-7.254v1.612C16.169,5.454,18.546,7.826,18.546,11.096z"/>
<path d="M12.903,8.679c1.696,0,2.418,0.723,2.418,2.418h1.612c0-2.6-1.431-4.031-4.03-4.031V8.679z M15.661,13.066
	c-0.321-0.293-0.817-0.276-1.121,0.034l-1.928,1.984c-0.465-0.089-1.399-0.379-2.36-1.338c-0.961-0.963-1.251-1.898-1.338-2.359
	l1.983-1.93c0.312-0.303,0.327-0.799,0.035-1.121L7.953,5.062c-0.293-0.323-0.791-0.354-1.122-0.07l-1.749,1.5
	c-0.14,0.14-0.223,0.326-0.234,0.523c-0.012,0.202-0.243,4.976,3.459,8.679c3.229,3.229,7.275,3.465,8.388,3.465
	c0.164,0,0.264-0.005,0.29-0.006c0.197-0.011,0.383-0.095,0.522-0.235l1.499-1.75c0.284-0.331,0.254-0.827-0.069-1.122
	L15.661,13.066z"/>
<circle fill="none" stroke="#000000" stroke-miterlimit="10" cx="11.906" cy="12.093" r="11.156"/>
</svg>
